STARTFONT 2.1
FONT -DEC-Terminal-Bold-R-Double Wide--14-140-75-75-C-16-ISO8859-8
SIZE 14 75 75
FONTBOUNDINGBOX 16 14 0 -2

STARTPROPERTIES 25
FONTNAME_REGISTRY ""
FAMILY_NAME "Terminal"
FOUNDRY "DEC"
WEIGHT_NAME "Bold"
SETWIDTH_NAME "Double Wide"
SLANT "R"
ADD_STYLE_NAME ""
PIXEL_SIZE 14
RESOLUTION_X 75
RESOLUTION_Y 75
SPACING "C"
AVERAGE_WIDTH 160
CHARSET_REGISTRY "ISO8859"
CHARSET_ENCODING "8"
CHARSET_COLLECTIONS "ASCII ISO8859-8"
FULL_NAME "Terminal Bold Double Wide"
COPYRIGHT "Digital Israel"
CAP_HEIGHT 10
X_HEIGHT 8
QUAD_WIDTH 16
POINT_SIZE 140
WEIGHT 10
DEFAULT_CHAR 0
FONT_DESCENT 3
FONT_ASCENT 12
ENDPROPERTIES

CHARS 157

STARTCHAR space
ENCODING 32
SWIDTH 1097 0
DWIDTH 16 0
BBX 3 12 6 -1
BITMAP
00
00
00
00
00
00
00
00
00
00
00
00
ENDCHAR

STARTCHAR exclam
ENCODING 33
SWIDTH 1097 0
DWIDTH 16 0
BBX 3 12 6 -1
BITMAP
E0
E0
E0
E0
E0
E0
E0
E0
E0
00
E0
E0
ENDCHAR

STARTCHAR quotedbl
ENCODING 34
SWIDTH 1097 0
DWIDTH 16 0
BBX 9 3 3 8
BITMAP
E380
E380
E380
ENDCHAR

STARTCHAR numbersign
ENCODING 35
SWIDTH 1097 0
DWIDTH 16 0
BBX 13 9 2 0
BITMAP
38E0
38E0
FFF8
FFF8
38E0
FFF8
FFF8
38E0
38E0
ENDCHAR

STARTCHAR dollar
ENCODING 36
SWIDTH 1097 0
DWIDTH 16 0
BBX 12 11 2 -1
BITMAP
0F00
0F00
7FE0
F9F0
F800
7FE0
01F0
F9F0
7FE0
0F00
0F00
ENDCHAR

STARTCHAR percent
ENCODING 37
SWIDTH 1097 0
DWIDTH 16 0
BBX 14 10 1 0
BITMAP
7038
D870
D8E0
D9C0
7380
0738
0E6C
1C6C
386C
7038
ENDCHAR

STARTCHAR ampersand
ENCODING 38
SWIDTH 1097 0
DWIDTH 16 0
BBX 14 10 1 0
BITMAP
3F00
7F80
7380
3300
3E00
7F3C
F3F8
F1E0
FFF0
7F78
ENDCHAR

STARTCHAR quoteright
ENCODING 39
SWIDTH 1097 0
DWIDTH 16 0
BBX 7 4 4 6
BITMAP
1E
3E
78
E0
ENDCHAR

STARTCHAR parenleft
ENCODING 40
SWIDTH 1097 0
DWIDTH 16 0
BBX 7 12 7 -1
BITMAP
1E
3C
78
F0
E0
E0
E0
E0
F0
78
3C
1E
ENDCHAR

STARTCHAR parenright
ENCODING 41
SWIDTH 1097 0
DWIDTH 16 0
BBX 7 12 2 -1
BITMAP
F0
78
3C
1E
0E
0E
0E
0E
1E
3C
78
F0
ENDCHAR

STARTCHAR asterisk
ENCODING 42
SWIDTH 1097 0
DWIDTH 16 0
BBX 9 8 3 2
BITMAP
6300
7700
3E00
FF80
FF80
3E00
7700
6300
ENDCHAR

STARTCHAR plus
ENCODING 43
SWIDTH 1097 0
DWIDTH 16 0
BBX 11 8 2 1
BITMAP
0E00
0E00
0E00
FFE0
FFE0
0E00
0E00
0E00
ENDCHAR

STARTCHAR comma
ENCODING 44
SWIDTH 1097 0
DWIDTH 16 0
BBX 6 4 4 -1
BITMAP
3C
3C
38
F0
ENDCHAR

STARTCHAR minus
ENCODING 45
SWIDTH 1097 0
DWIDTH 16 0
BBX 10 2 3 4
BITMAP
FFC0
FFC0
ENDCHAR

STARTCHAR period
ENCODING 46
SWIDTH 1097 0
DWIDTH 16 0
BBX 4 3 5 0
BITMAP
F0
F0
F0
ENDCHAR

STARTCHAR slash
ENCODING 47
SWIDTH 1097 0
DWIDTH 16 0
BBX 12 10 2 0
BITMAP
0070
00E0
01C0
0380
0700
0E00
1C00
3800
7000
E000
ENDCHAR

STARTCHAR zero
ENCODING 48
SWIDTH 1097 0
DWIDTH 16 0
BBX 12 10 2 0
BITMAP
1F80
3FC0
79E0
F0F0
F0F0
F0F0
F0F0
79E0
3FC0
1F80
ENDCHAR

STARTCHAR one
ENCODING 49
SWIDTH 1097 0
DWIDTH 16 0
BBX 12 10 2 0
BITMAP
1F00
3F00
FF00
0F00
0F00
0F00
0F00
0F00
FFF0
FFF0
ENDCHAR

STARTCHAR two
ENCODING 50
SWIDTH 1097 0
DWIDTH 16 0
BBX 13 10 2 0
BITMAP
3FE0
7FF0
70F0
00F0
03E0
0FC0
3F00
F800
FFF8
FFF8
ENDCHAR

STARTCHAR three
ENCODING 51
SWIDTH 1097 0
DWIDTH 16 0
BBX 12 10 2 0
BITMAP
7FE0
FFF0
C0F0
00F0
0FE0
0FF0
00F0
C0F0
FFF0
7FE0
ENDCHAR

STARTCHAR four
ENCODING 52
SWIDTH 1097 0
DWIDTH 16 0
BBX 14 10 2 0
BITMAP
01F0
03F0
0FF0
3CF0
F0F0
E0F0
FFFC
FFFC
00F0
00F0
ENDCHAR

STARTCHAR five
ENCODING 53
SWIDTH 1097 0
DWIDTH 16 0
BBX 12 10 3 0
BITMAP
FFE0
FFE0
F000
F000
FFE0
FFF0
00F0
C1F0
FFE0
7FC0
ENDCHAR

STARTCHAR six
ENCODING 54
SWIDTH 1097 0
DWIDTH 16 0
BBX 12 10 2 0
BITMAP
1FE0
7FE0
F000
F000
F7E0
FFF0
F0F0
F0F0
7FF0
3FE0
ENDCHAR

STARTCHAR seven
ENCODING 55
SWIDTH 1097 0
DWIDTH 16 0
BBX 12 10 2 0
BITMAP
FFF0
FFF0
C0E0
03C0
0780
0F00
1E00
3C00
7800
7800
ENDCHAR

STARTCHAR eight
ENCODING 56
SWIDTH 1097 0
DWIDTH 16 0
BBX 12 10 2 0
BITMAP
3FC0
FFF0
F0F0
F0F0
3FC0
FFF0
F0F0
F0F0
FFF0
3FC0
ENDCHAR

STARTCHAR nine
ENCODING 57
SWIDTH 1097 0
DWIDTH 16 0
BBX 12 10 2 0
BITMAP
3FC0
7FE0
F0F0
F0F0
F0F0
7FF0
3EF0
00F0
7FE0
7FC0
ENDCHAR

STARTCHAR colon
ENCODING 58
SWIDTH 1097 0
DWIDTH 16 0
BBX 4 8 5 0
BITMAP
F0
F0
F0
00
00
F0
F0
F0
ENDCHAR

STARTCHAR semicolon
ENCODING 59
SWIDTH 1097 0
DWIDTH 16 0
BBX 6 9 3 -1
BITMAP
3C
3C
3C
00
00
3C
3C
38
F0
ENDCHAR

STARTCHAR less
ENCODING 60
SWIDTH 1097 0
DWIDTH 16 0
BBX 12 9 2 0
BITMAP
01F0
07C0
1F00
7C00
F000
7C00
1F00
07C0
01F0
ENDCHAR

STARTCHAR equal
ENCODING 61
SWIDTH 1097 0
DWIDTH 16 0
BBX 10 5 3 2
BITMAP
FFC0
FFC0
0000
FFC0
FFC0
ENDCHAR

STARTCHAR greater
ENCODING 62
SWIDTH 1097 0
DWIDTH 16 0
BBX 12 9 2 0
BITMAP
F800
3E00
0F80
03E0
00F0
03E0
0F80
3E00
F800
ENDCHAR

STARTCHAR question
ENCODING 63
SWIDTH 1097 0
DWIDTH 16 0
BBX 11 12 2 -1
BITMAP
3F00
FFC0
E3E0
C1E0
03E0
0FC0
1F80
1E00
1E00
0000
1E00
1E00
ENDCHAR

STARTCHAR at
ENCODING 64
SWIDTH 1097 0
DWIDTH 16 0
BBX 13 12 2 -1
BITMAP
3FF0
F838
F038
F3F8
F798
F798
F798
F7F8
F1F0
F000
F818
3FF8
ENDCHAR

STARTCHAR A
ENCODING 65
SWIDTH 1097 0
DWIDTH 16 0
BBX 16 10 0 0
BITMAP
0180
03C0
07E0
0FF0
1E78
3C3C
3FFC
7FFE
F81F
F81F
ENDCHAR

STARTCHAR B
ENCODING 66
SWIDTH 1097 0
DWIDTH 16 0
BBX 15 10 1 0
BITMAP
FFF8
7FFC
787C
7838
7FF0
7FFC
783E
787E
7FFC
FFF8
ENDCHAR

STARTCHAR C
ENCODING 67
SWIDTH 1097 0
DWIDTH 16 0
BBX 14 10 1 0
BITMAP
0FE0
3FF8
7C3C
F800
F800
F800
F81C
7C3C
3FF8
0FE0
ENDCHAR

STARTCHAR D
ENCODING 68
SWIDTH 1097 0
DWIDTH 16 0
BBX 14 10 1 0
BITMAP
FFC0
7FF0
78F8
787C
787C
787C
787C
78F8
7FF0
FFC0
ENDCHAR

STARTCHAR E
ENCODING 69
SWIDTH 1097 0
DWIDTH 16 0
BBX 13 10 1 0
BITMAP
FFF8
3FF8
3C18
3C08
3FC0
3FC0
3C08
3C18
3FF8
FFF8
ENDCHAR

STARTCHAR F
ENCODING 70
SWIDTH 1097 0
DWIDTH 16 0
BBX 13 10 1 0
BITMAP
FFF8
3FF8
3C18
3C08
3FE0
3FE0
3C00
3C00
3C00
FF00
ENDCHAR

STARTCHAR G
ENCODING 71
SWIDTH 1097 0
DWIDTH 16 0
BBX 14 10 1 0
BITMAP
1FE0
7FF8
FC3C
F800
F800
F9FC
F9FC
FC7C
7FFC
1FF0
ENDCHAR

STARTCHAR H
ENCODING 72
SWIDTH 1097 0
DWIDTH 16 0
BBX 14 10 1 0
BITMAP
FCFC
7878
7878
7878
7FF8
7FF8
7878
7878
7878
FCFC
ENDCHAR

STARTCHAR I
ENCODING 73
SWIDTH 1097 0
DWIDTH 16 0
BBX 10 10 3 0
BITMAP
FFC0
FFC0
1E00
1E00
1E00
1E00
1E00
1E00
FFC0
FFC0
ENDCHAR

STARTCHAR J
ENCODING 74
SWIDTH 1097 0
DWIDTH 16 0
BBX 11 10 2 0
BITMAP
1FE0
1FE0
01E0
01E0
01E0
01E0
01E0
F1E0
FFC0
7F80
ENDCHAR

STARTCHAR K
ENCODING 75
SWIDTH 1097 0
DWIDTH 16 0
BBX 14 10 1 0
BITMAP
FC3C
7878
78F0
79E0
7FC0
7F80
7FE0
79F0
78F8
FC7C
ENDCHAR

STARTCHAR L
ENCODING 76
SWIDTH 1097 0
DWIDTH 16 0
BBX 12 10 2 0
BITMAP
FF00
3C00
3C00
3C00
3C00
3C00
3C10
3C30
3FF0
FFF0
ENDCHAR

STARTCHAR M
ENCODING 77
SWIDTH 1097 0
DWIDTH 16 0
BBX 16 10 0 0
BITMAP
F81F
7C3E
7C3E
7E7E
7FFE
7BDE
799E
799E
799E
F81F
ENDCHAR

STARTCHAR N
ENCODING 78
SWIDTH 1097 0
DWIDTH 16 0
BBX 14 10 1 0
BITMAP
F87C
7878
7C78
7E78
7F78
7BF8
79F8
78F8
7878
F87C
ENDCHAR

STARTCHAR O
ENCODING 79
SWIDTH 1097 0
DWIDTH 16 0
BBX 14 10 1 0
BITMAP
0FC0
3FF0
7CF8
F87C
F87C
F87C
F87C
7CF8
3FF0
0FC0
ENDCHAR

STARTCHAR P
ENCODING 80
SWIDTH 1097 0
DWIDTH 16 0
BBX 14 10 1 0
BITMAP
FFE0
7FF8
787C
783C
787C
7FF8
7FE0
7800
7800
FC00
ENDCHAR

STARTCHAR Q
ENCODING 81
SWIDTH 1097 0
DWIDTH 16 0
BBX 14 12 1 -2
BITMAP
0FC0
3FF0
7CF8
F87C
F87C
F87C
F87C
7DF8
3FF0
0FC0
00E0
0070
ENDCHAR

STARTCHAR R
ENCODING 82
SWIDTH 1097 0
DWIDTH 16 0
BBX 14 10 1 0
BITMAP
FFC0
7FF0
78F8
7878
78F8
7FF0
7FC0
79F0
78F8
FC7C
ENDCHAR

STARTCHAR S
ENCODING 83
SWIDTH 1097 0
DWIDTH 16 0
BBX 13 10 2 0
BITMAP
1FC0
7FF0
F878
FE00
7FC0
3FF0
07F8
F078
7FF0
3FC0
ENDCHAR

STARTCHAR T
ENCODING 84
SWIDTH 1097 0
DWIDTH 16 0
BBX 12 10 2 0
BITMAP
FFF0
FFF0
8F10
0F00
0F00
0F00
0F00
0F00
0F00
3FC0
ENDCHAR

STARTCHAR U
ENCODING 85
SWIDTH 1097 0
DWIDTH 16 0
BBX 14 10 1 0
BITMAP
FCFC
7878
7878
7878
7878
7878
7878
3CF0
3FF0
0FC0
ENDCHAR

STARTCHAR V
ENCODING 86
SWIDTH 1097 0
DWIDTH 16 0
BBX 15 10 1 0
BITMAP
FC7E
783C
783C
3838
3C78
1C70
1EF0
0FE0
07C0
0380
ENDCHAR

STARTCHAR W
ENCODING 87
SWIDTH 1097 0
DWIDTH 16 0
BBX 16 10 0 0
BITMAP
F81F
799E
799E
799E
799E
3BDC
3BDC
1A58
0E70
0C30
ENDCHAR

STARTCHAR X
ENCODING 88
SWIDTH 1097 0
DWIDTH 16 0
BBX 15 10 1 0
BITMAP
FC3E
3E78
1FF0
0FE0
07C0
07C0
0FE0
1EF0
3C78
F83E
ENDCHAR

STARTCHAR Y
ENCODING 89
SWIDTH 1097 0
DWIDTH 16 0
BBX 16 10 0 0
BITMAP
F81F
7C3E
3E7C
1E78
0FF0
07E0
03C0
03C0
03C0
0FF0
ENDCHAR

STARTCHAR Z
ENCODING 90
SWIDTH 1097 0
DWIDTH 16 0
BBX 12 10 2 0
BITMAP
FFF0
FFF0
C0F0
83E0
07C0
1F00
7C10
F830
FFF0
FFF0
ENDCHAR

STARTCHAR bracketleft
ENCODING 91
SWIDTH 1097 0
DWIDTH 16 0
BBX 8 12 6 -1
BITMAP
FF
FF
F0
F0
F0
F0
F0
F0
F0
F0
FF
FF
ENDCHAR

STARTCHAR backslash
ENCODING 92
SWIDTH 1097 0
DWIDTH 16 0
BBX 12 10 2 0
BITMAP
E000
7000
3800
1C00
0E00
0700
0380
01C0
00E0
0070
ENDCHAR

STARTCHAR bracketright
ENCODING 93
SWIDTH 1097 0
DWIDTH 16 0
BBX 8 12 2 -1
BITMAP
FF
FF
0F
0F
0F
0F
0F
0F
0F
0F
FF
FF
ENDCHAR

STARTCHAR asciicircum
ENCODING 94
SWIDTH 1097 0
DWIDTH 16 0
BBX 11 4 3 6
BITMAP
1F00
3F80
7BC0
F1E0
ENDCHAR

STARTCHAR underscore
ENCODING 95
SWIDTH 1097 0
DWIDTH 16 0
BBX 12 2 2 -2
BITMAP
FFF0
FFF0
ENDCHAR

STARTCHAR quoteleft
ENCODING 96
SWIDTH 1097 0
DWIDTH 16 0
BBX 6 4 6 6
BITMAP
F0
F0
78
1C
ENDCHAR

STARTCHAR a
ENCODING 97
SWIDTH 1097 0
DWIDTH 16 0
BBX 15 8 1 0
BITMAP
3FF0
7FF8
70F8
0078
7FF8
F078
FFFE
7F7E
ENDCHAR

STARTCHAR b
ENCODING 98
SWIDTH 1097 0
DWIDTH 16 0
BBX 14 11 1 0
BITMAP
F800
7800
7800
7BE0
7FF8
7C7C
783C
783C
787C
7FF8
FFE0
ENDCHAR

STARTCHAR c
ENCODING 99
SWIDTH 1097 0
DWIDTH 16 0
BBX 14 8 1 0
BITMAP
1FF0
7FFC
F81C
F000
F000
F81C
7FFC
1FF8
ENDCHAR

STARTCHAR d
ENCODING 100
SWIDTH 1097 0
DWIDTH 16 0
BBX 14 11 1 0
BITMAP
00F8
0078
0078
1FF8
7FF8
F878
F078
F078
F8F8
7FF8
1F7C
ENDCHAR

STARTCHAR e
ENCODING 101
SWIDTH 1097 0
DWIDTH 16 0
BBX 14 8 1 0
BITMAP
1FE0
7FF8
F03C
FFFC
FFF8
F000
7FF8
1FF0
ENDCHAR

STARTCHAR f
ENCODING 102
SWIDTH 1097 0
DWIDTH 16 0
BBX 13 11 2 0
BITMAP
0FF0
1FF8
1E18
1E00
FFF0
FFF0
1E00
1E00
1E00
7FE0
7FE0
ENDCHAR

STARTCHAR g
ENCODING 103
SWIDTH 1097 0
DWIDTH 16 0
BBX 13 10 1 -2
BITMAP
1FF8
7FF8
F878
F078
F878
7FF8
1FF8
0038
7FF0
3FE0
ENDCHAR

STARTCHAR h
ENCODING 104
SWIDTH 1097 0
DWIDTH 16 0
BBX 14 11 1 0
BITMAP
F800
7800
7800
7BF0
7FF8
7CF8
7878
7878
7878
7878
FCFC
ENDCHAR

STARTCHAR i
ENCODING 105
SWIDTH 1097 0
DWIDTH 16 0
BBX 12 11 2 0
BITMAP
0F00
0F00
0000
7F00
7F00
0F00
0F00
0F00
0F00
FFF0
FFF0
ENDCHAR

STARTCHAR j
ENCODING 106
SWIDTH 1097 0
DWIDTH 16 0
BBX 10 13 3 -2
BITMAP
03C0
03C0
0000
7FC0
7FC0
03C0
03C0
03C0
03C0
03C0
07C0
FF80
FF00
ENDCHAR

STARTCHAR k
ENCODING 107
SWIDTH 1097 0
DWIDTH 16 0
BBX 14 11 1 0
BITMAP
F800
7800
7800
787C
78F8
79E0
7F80
7F80
7BE0
78F8
F87C
ENDCHAR

STARTCHAR l
ENCODING 108
SWIDTH 1097 0
DWIDTH 16 0
BBX 12 11 2 0
BITMAP
7F00
7F00
0F00
0F00
0F00
0F00
0F00
0F00
0F00
FFF0
FFF0
ENDCHAR

STARTCHAR m
ENCODING 109
SWIDTH 1097 0
DWIDTH 16 0
BBX 16 8 0 0
BITMAP
F77C
7FFE
79CE
79CE
79CE
79CE
79CE
F9CF
ENDCHAR

STARTCHAR n
ENCODING 110
SWIDTH 1097 0
DWIDTH 16 0
BBX 14 8 1 0
BITMAP
FBF0
7FF8
7C78
7878
7878
7878
7878
FCFC
ENDCHAR

STARTCHAR o
ENCODING 111
SWIDTH 1097 0
DWIDTH 16 0
BBX 14 8 1 0
BITMAP
1FE0
7FF8
F87C
F03C
F03C
F87C
7FF8
1FE0
ENDCHAR

STARTCHAR p
ENCODING 112
SWIDTH 1097 0
DWIDTH 16 0
BBX 14 10 1 -2
BITMAP
F7E0
7FF8
787C
783C
783C
7C7C
7FF8
7BE0
7800
FC00
ENDCHAR

STARTCHAR q
ENCODING 113
SWIDTH 1097 0
DWIDTH 16 0
BBX 14 10 1 -2
BITMAP
1FF8
7FF8
F878
F078
F078
F8F8
7FF8
1F78
0078
00FC
ENDCHAR

STARTCHAR r
ENCODING 114
SWIDTH 1097 0
DWIDTH 16 0
BBX 12 8 2 0
BITMAP
FDF0
FFF0
3E10
3C00
3C00
3C00
FF80
FF80
ENDCHAR

STARTCHAR s
ENCODING 115
SWIDTH 1097 0
DWIDTH 16 0
BBX 12 8 2 0
BITMAP
7FF0
FFF0
F000
FFE0
3FF0
00F0
FFF0
FFE0
ENDCHAR

STARTCHAR t
ENCODING 116
SWIDTH 1097 0
DWIDTH 16 0
BBX 13 11 1 0
BITMAP
1E00
1E00
1E00
FFF8
FFF8
1E00
1E00
1E00
1E00
1FF8
0FF8
ENDCHAR

STARTCHAR u
ENCODING 117
SWIDTH 1097 0
DWIDTH 16 0
BBX 14 8 1 0
BITMAP
F8F8
7878
7878
7878
7878
78F8
7FF8
3F7C
ENDCHAR

STARTCHAR v
ENCODING 118
SWIDTH 1097 0
DWIDTH 16 0
BBX 15 8 0 0
BITMAP
F83E
783C
783C
3C78
3C78
1EF0
1EF0
0FE0
ENDCHAR

STARTCHAR w
ENCODING 119
SWIDTH 1097 0
DWIDTH 16 0
BBX 16 8 0 0
BITMAP
F81F
799E
799E
799E
799E
7BDE
3FFC
1C38
ENDCHAR

STARTCHAR x
ENCODING 120
SWIDTH 1097 0
DWIDTH 16 0
BBX 13 8 1 0
BITMAP
F878
7CE0
3FC0
1F80
0FC0
1FE0
39F0
F0F8
ENDCHAR

STARTCHAR y
ENCODING 121
SWIDTH 1097 0
DWIDTH 16 0
BBX 16 10 0 -2
BITMAP
FC1F
3E3C
1F78
0FF0
07E0
03C0
0380
0700
3E00
3800
ENDCHAR

STARTCHAR z
ENCODING 122
SWIDTH 1097 0
DWIDTH 16 0
BBX 11 8 3 0
BITMAP
FFE0
FFE0
8780
0F00
1E00
7C20
FFE0
FFE0
ENDCHAR

STARTCHAR braceleft
ENCODING 123
SWIDTH 1097 0
DWIDTH 16 0
BBX 9 12 5 -1
BITMAP
0F80
1E00
3C00
3C00
1E00
F800
1E00
3C00
3C00
3E00
1E00
0780
ENDCHAR

STARTCHAR bar
ENCODING 124
SWIDTH 1097 0
DWIDTH 16 0
BBX 4 12 6 -1
BITMAP
F0
F0
F0
F0
F0
F0
F0
F0
F0
F0
F0
F0
ENDCHAR

STARTCHAR braceright
ENCODING 125
SWIDTH 1097 0
DWIDTH 16 0
BBX 9 12 2 -1
BITMAP
F800
3C00
1E00
1E00
3C00
0F80
3C00
1E00
1E00
1E00
3C00
F800
ENDCHAR

STARTCHAR asciitilde
ENCODING 126
SWIDTH 1097 0
DWIDTH 16 0
BBX 12 4 2 6
BITMAP
3C30
7FF0
FFE0
C3C0
ENDCHAR

STARTCHAR unknown_0x80
ENCODING 128
SWIDTH 1097 0
DWIDTH 16 0
BBX 15 10 0 0
BITMAP
0FFE
3FFE
7CF2
F8F0
F8FC
F8FC
F8F0
7CF2
3FFE
0FFE
ENDCHAR

STARTCHAR unknown_0x81
ENCODING 129
SWIDTH 1097 0
DWIDTH 16 0
BBX 16 8 0 0
BITMAP
1E3C
7FFE
F3C7
E1FF
E1FE
F3C0
7FFF
1E7E
ENDCHAR

STARTCHAR unknown_0x82
ENCODING 130
SWIDTH 1097 0
DWIDTH 16 0
BBX 14 12 1 0
BITMAP
1CE0
1CE0
0000
F87C
7CF8
3CF0
1FE0
0FC0
0780
0780
0780
1FE0
ENDCHAR

STARTCHAR unknown_0xa1
ENCODING 161
SWIDTH 1097 0
DWIDTH 16 0
BBX 3 12 6 -1
BITMAP
E0
E0
00
E0
E0
E0
E0
E0
E0
E0
E0
E0
ENDCHAR

STARTCHAR cent
ENCODING 162
SWIDTH 1097 0
DWIDTH 16 0
BBX 12 12 2 -2
BITMAP
0300
0300
1FF0
7FF0
FB30
F300
F300
FB30
7FF0
1FF0
0300
0300
ENDCHAR

STARTCHAR sterling
ENCODING 163
SWIDTH 1097 0
DWIDTH 16 0
BBX 13 10 2 0
BITMAP
0FE0
1FF0
3C30
3C00
FF80
FF80
3C00
3E08
7FF8
FDF8
ENDCHAR

STARTCHAR currency
ENCODING 164
SWIDTH 1097 0
DWIDTH 16 0
BBX 13 10 1 0
BITMAP
E038
6030
1FC0
3FE0
38E0
38E0
3FE0
1FC0
6030
E038
ENDCHAR

STARTCHAR yen
ENCODING 165
SWIDTH 1097 0
DWIDTH 16 0
BBX 16 10 0 0
BITMAP
F81F
7C3E
1E78
7FFE
7FFE
03C0
7FFE
7FFE
03C0
0FF0
ENDCHAR

STARTCHAR brokenbar
ENCODING 166
SWIDTH 1097 0
DWIDTH 16 0
BBX 4 12 6 -1
BITMAP
F0
F0
F0
F0
F0
00
00
F0
F0
F0
F0
F0
ENDCHAR

STARTCHAR section
ENCODING 167
SWIDTH 1097 0
DWIDTH 16 0
BBX 12 12 2 -1
BITMAP
3FE0
7FF0
7870
3F80
7FE0
F0F0
F0F0
7FE0
1FF0
E0F0
FFE0
7FC0
ENDCHAR

STARTCHAR dieresis
ENCODING 168
SWIDTH 1097 0
DWIDTH 16 0
BBX 8 2 4 9
BITMAP
E7
E7
ENDCHAR

STARTCHAR copyright
ENCODING 169
SWIDTH 1097 0
DWIDTH 16 0
BBX 16 13 0 -1
BITMAP
1FF8
7FFE
700E
E3E7
E7E7
EE27
EE07
EE07
E7E7
E3E7
700E
7FFE
1FF8
ENDCHAR

STARTCHAR multiply
ENCODING 170
SWIDTH 1097 0
DWIDTH 16 0
BBX 10 8 2 1
BITMAP
E1C0
7380
3F00
1E00
1E00
3F00
7380
E1C0
ENDCHAR

STARTCHAR guillemotleft
ENCODING 171
SWIDTH 1097 0
DWIDTH 16 0
BBX 11 8 4 1
BITMAP
1CE0
39C0
7380
E700
E700
7380
39C0
1CE0
ENDCHAR

STARTCHAR logicalnot
ENCODING 172
SWIDTH 1097 0
DWIDTH 16 0
BBX 8 3 4 8
BITMAP
FF
FF
03
ENDCHAR

STARTCHAR hyphen
ENCODING 173
SWIDTH 1097 0
DWIDTH 16 0
BBX 6 2 5 4
BITMAP
FC
FC
ENDCHAR

STARTCHAR registered
ENCODING 174
SWIDTH 1097 0
DWIDTH 16 0
BBX 16 13 0 -1
BITMAP
1FF8
7FFE
700E
E7C7
E7E7
E667
E7C7
E7C7
E6E7
E677
700E
7FFE
1FF8
ENDCHAR

STARTCHAR macron
ENCODING 175
SWIDTH 1097 0
DWIDTH 16 0
BBX 8 2 4 9
BITMAP
FF
FF
ENDCHAR

STARTCHAR degree
ENCODING 176
SWIDTH 1097 0
DWIDTH 16 0
BBX 8 4 2 8
BITMAP
7E
E7
E7
7E
ENDCHAR

STARTCHAR plusminus
ENCODING 177
SWIDTH 1097 0
DWIDTH 16 0
BBX 9 9 3 1
BITMAP
1C00
1C00
FF80
FF80
1C00
1C00
0000
FF80
FF80
ENDCHAR

STARTCHAR twosuperior
ENCODING 178
SWIDTH 1097 0
DWIDTH 16 0
BBX 10 7 3 5
BITMAP
7F80
FFC0
C3C0
1F80
7800
FFC0
FFC0
ENDCHAR

STARTCHAR threesuperior
ENCODING 179
SWIDTH 1097 0
DWIDTH 16 0
BBX 10 7 3 5
BITMAP
7F80
FFC0
03C0
3F00
03C0
FFC0
7F80
ENDCHAR

STARTCHAR acute
ENCODING 180
SWIDTH 1097 0
DWIDTH 16 0
BBX 5 3 6 9
BITMAP
38
70
E0
ENDCHAR

STARTCHAR mu
ENCODING 181
SWIDTH 1097 0
DWIDTH 16 0
BBX 16 9 0 -1
BITMAP
01C7
03CF
079E
0F3C
1E78
3CF2
6FFE
C7BC
C000
ENDCHAR

STARTCHAR paragraph
ENCODING 182
SWIDTH 1097 0
DWIDTH 16 0
BBX 11 13 2 -2
BITMAP
1FE0
7FE0
7F60
FF60
FF60
FF60
7F60
7F60
1F60
0360
0360
0360
0360
ENDCHAR

STARTCHAR periodcentered
ENCODING 183
SWIDTH 1097 0
DWIDTH 16 0
BBX 4 4 6 3
BITMAP
60
F0
F0
60
ENDCHAR

STARTCHAR cedilla
ENCODING 184
SWIDTH 1097 0
DWIDTH 16 0
BBX 5 4 5 -2
BITMAP
78
78
70
E0
ENDCHAR

STARTCHAR onesuperior
ENCODING 185
SWIDTH 1097 0
DWIDTH 16 0
BBX 7 7 4 5
BITMAP
38
F8
38
38
38
38
FE
ENDCHAR

STARTCHAR divide
ENCODING 186
SWIDTH 1097 0
DWIDTH 16 0
BBX 11 8 2 1
BITMAP
0E00
0E00
0000
FFE0
FFE0
0000
0E00
0E00
ENDCHAR

STARTCHAR guillemotright
ENCODING 187
SWIDTH 1097 0
DWIDTH 16 0
BBX 11 8 1 1
BITMAP
E700
7380
39C0
1CE0
1CE0
39C0
7380
E700
ENDCHAR

STARTCHAR onequarter
ENCODING 188
SWIDTH 1097 0
DWIDTH 16 0
BBX 15 13 1 -1
BITMAP
3C00
FC18
3C30
3C60
FFC0
0180
033C
067C
0CDC
199C
33FE
601C
C000
ENDCHAR

STARTCHAR onehalf
ENCODING 189
SWIDTH 1097 0
DWIDTH 16 0
BBX 14 13 1 -1
BITMAP
3C00
FC18
3C30
3C60
FEC0
0180
0300
06F8
0D1C
183C
30F8
61E0
C1FC
ENDCHAR

STARTCHAR threequarters
ENCODING 190
SWIDTH 1097 0
DWIDTH 16 0
BBX 15 13 1 -1
BITMAP
7C00
FE1C
0E38
7C70
0EE0
FFC0
7FBC
077C
0EDC
1D9C
3BFE
701C
E000
ENDCHAR

STARTCHAR unknown_0xbf
ENCODING 191
SWIDTH 1097 0
DWIDTH 16 0
BBX 11 12 3 -1
BITMAP
0F00
0F00
0000
0F00
0F00
3E00
7800
F000
F060
F8E0
7FE0
1F80
ENDCHAR

STARTCHAR dblunderscore
ENCODING 223
SWIDTH 1097 0
DWIDTH 16 0
BBX 12 11 2 -1
BITMAP
0000
0000
0000
0000
0000
FFF0
FFF0
0000
0000
FFF0
FFF0
ENDCHAR

STARTCHAR aleph
ENCODING 224
SWIDTH 1097 0
DWIDTH 16 0
BBX 16 11 0 -1
BITMAP
7878
3C78
1E78
0F78
3FF8
7BF0
79E0
78F0
7878
783C
0000
ENDCHAR

STARTCHAR beth
ENCODING 225
SWIDTH 1097 0
DWIDTH 16 0
BBX 16 11 0 -1
BITMAP
3FE0
3FF0
01F0
00F0
00F0
00F0
00F0
00F0
3FFC
3FFC
0000
ENDCHAR

STARTCHAR gimmel
ENCODING 226
SWIDTH 1097 0
DWIDTH 16 0
BBX 16 11 0 -1
BITMAP
07F0
07F8
0078
0078
0078
00F8
01F8
03F8
0778
0E78
0000
ENDCHAR

STARTCHAR daleth
ENCODING 227
SWIDTH 1097 0
DWIDTH 16 0
BBX 16 11 0 -1
BITMAP
7FFC
7FFC
01E0
01E0
01E0
01E0
01E0
01E0
01E0
01E0
0000
ENDCHAR

STARTCHAR he
ENCODING 228
SWIDTH 1097 0
DWIDTH 16 0
BBX 16 11 0 -1
BITMAP
7FF8
7FFC
007C
003C
783C
783C
783C
783C
783C
783C
0000
ENDCHAR

STARTCHAR waw
ENCODING 229
SWIDTH 1097 0
DWIDTH 16 0
BBX 16 11 0 -1
BITMAP
0FE0
0FE0
01E0
01E0
01E0
01E0
01E0
01E0
01E0
01E0
0000
ENDCHAR

STARTCHAR zayin
ENCODING 230
SWIDTH 1097 0
DWIDTH 16 0
BBX 16 11 0 -1
BITMAP
0FF0
0FF0
03C0
03C0
01E0
01E0
01E0
01E0
01E0
01E0
0000
ENDCHAR

STARTCHAR het
ENCODING 231
SWIDTH 1097 0
DWIDTH 16 0
BBX 16 11 0 -1
BITMAP
3FF8
3FFC
3C7C
3C3C
3C3C
3C3C
3C3C
3C3C
3C3C
3C3C
0000
ENDCHAR

STARTCHAR teth
ENCODING 232
SWIDTH 1097 0
DWIDTH 16 0
BBX 16 11 0 -1
BITMAP
79F8
787C
783C
783C
783C
783C
783C
7C7C
3FF8
0FE0
0000
ENDCHAR

STARTCHAR yod
ENCODING 233
SWIDTH 1097 0
DWIDTH 16 0
BBX 16 11 0 -1
BITMAP
0FE0
0FE0
01E0
01E0
01E0
01E0
0000
0000
0000
0000
0000
ENDCHAR

STARTCHAR kaphfinal
ENCODING 234
SWIDTH 1097 0
DWIDTH 16 0
BBX 16 12 0 -2
BITMAP
1FF8
1FFC
007C
003C
003C
003C
003C
003C
003C
003C
003C
003C
ENDCHAR

STARTCHAR kaph
ENCODING 235
SWIDTH 1097 0
DWIDTH 16 0
BBX 16 13 0 -1
BITMAP
0000
0000
3FC0
3FF0
01F0
00F8
0078
0078
00F8
01F0
3FF0
3FC0
0000
ENDCHAR

STARTCHAR lamed
ENCODING 236
SWIDTH 1097 0
DWIDTH 16 0
BBX 16 13 0 -1
BITMAP
3C00
3C00
3C00
3FF8
3FFC
007C
003C
0078
0078
00F0
03F0
07C0
0000
ENDCHAR

STARTCHAR memfinal
ENCODING 237
SWIDTH 1097 0
DWIDTH 16 0
BBX 16 11 0 -1
BITMAP
7FF8
7FFC
787C
783C
783C
783C
783C
783C
7FFC
7FFC
0000
ENDCHAR

STARTCHAR mem
ENCODING 238
SWIDTH 1097 0
DWIDTH 16 0
BBX 16 11 0 -1
BITMAP
79F0
79FC
7F3C
7E1C
1E1E
3C1E
3C1E
781E
78FE
78FC
0000
ENDCHAR

STARTCHAR nunfinal
ENCODING 239
SWIDTH 1097 0
DWIDTH 16 0
BBX 16 12 0 -2
BITMAP
0FE0
0FE0
01E0
01E0
01E0
01E0
01E0
01E0
01E0
01E0
01E0
01E0
ENDCHAR

STARTCHAR nun
ENCODING 240
SWIDTH 1097 0
DWIDTH 16 0
BBX 16 11 0 -1
BITMAP
07F0
07F8
00F8
0078
0078
0078
0078
0078
0FF8
0FF8
0000
ENDCHAR

STARTCHAR samekh
ENCODING 241
SWIDTH 1097 0
DWIDTH 16 0
BBX 16 11 0 -1
BITMAP
7FF8
7FFC
783E
781E
781E
781E
781E
7C3E
3FFC
0FF0
0000
ENDCHAR

STARTCHAR ayin
ENCODING 242
SWIDTH 1097 0
DWIDTH 16 0
BBX 16 11 0 -1
BITMAP
1E3C
1E3C
1E3C
1E3C
1E3C
1E3C
1E3C
1E7C
7FF8
7FE0
0000
ENDCHAR

STARTCHAR pefinal
ENCODING 243
SWIDTH 1097 0
DWIDTH 16 0
BBX 16 12 0 -2
BITMAP
3FF8
3FFC
3C7C
3C3C
3C3C
3F3C
1F3C
003C
003C
003C
003C
003C
ENDCHAR

STARTCHAR pe
ENCODING 244
SWIDTH 1097 0
DWIDTH 16 0
BBX 16 11 0 -1
BITMAP
3FF8
3FFC
3C7C
3C3C
3F3C
1F3C
003C
003C
3FFC
3FFC
0000
ENDCHAR

STARTCHAR zadikfinal
ENCODING 245
SWIDTH 1097 0
DWIDTH 16 0
BBX 16 12 0 -2
BITMAP
3C3C
3C3C
3C3C
3C7C
3FF8
3FE0
3C00
3C00
3C00
3C00
3C00
3C00
ENDCHAR

STARTCHAR zadik
ENCODING 246
SWIDTH 1097 0
DWIDTH 16 0
BBX 16 11 0 -1
BITMAP
3C3C
3C3C
1E3C
0F3C
07F8
03E0
01F0
0078
3FFC
3FFC
0000
ENDCHAR

STARTCHAR kof
ENCODING 247
SWIDTH 1097 0
DWIDTH 16 0
BBX 16 11 0 -1
BITMAP
7FF8
7FFC
007C
003C
7878
7878
78F0
78F0
79E0
7BC0
7800
ENDCHAR

STARTCHAR resh
ENCODING 248
SWIDTH 1097 0
DWIDTH 16 0
BBX 16 10 0 0
BITMAP
3FF0
3FF8
00F8
0078
0078
0078
0078
0078
0078
0078
ENDCHAR

STARTCHAR shin
ENCODING 249
SWIDTH 1097 0
DWIDTH 16 0
BBX 16 10 0 0
BITMAP
7BDE
7BDE
7BDE
7BDE
7BDE
7BDE
781E
7C3E
3FFC
0FF0
ENDCHAR

STARTCHAR taf
ENCODING 250
SWIDTH 1097 0
DWIDTH 16 0
BBX 16 10 0 0
BITMAP
7FFC
7FFE
1E3E
1E1E
1E1E
1E1E
1E1E
1E1E
7E1E
7C1E
ENDCHAR
ENDFONT
